<svg width="47" height="47" viewBox="0 0 47 47" fill="none" xmlns="http://www.w3.org/2000/svg">
<path d="M25.6947 1.36989C19.7367 0.726761 18.9845 0.673332 16.6323 0.524929C14.2795 0.382014 12.6453 0.577647 11.1898 0.970248C9.66507 1.36321 8.24457 2.08444 7.02759 3.08354C5.79244 4.05991 4.7848 5.29362 4.07477 6.69889C3.3809 8.03437 2.838 9.5916 2.47917 11.9128C2.1216 14.2479 2.01358 14.9915 1.36956 20.9577C0.726135 26.9185 0.673003 27.6679 0.5246 30.0201C0.381981 32.3702 0.577614 34.0044 0.970215 35.4599C1.37699 36.9642 1.99408 38.269 3.0835 39.6221C4.17018 40.9749 5.313 41.859 6.69611 42.5746C8.03708 43.2691 9.58883 43.8114 11.9155 44.1708C14.2479 44.5281 14.9914 44.6361 20.9549 45.2798C26.9185 45.9236 27.6652 45.9764 30.0201 46.1251C32.3674 46.2674 34.0071 46.0724 35.4626 45.6798C36.9864 45.2864 38.406 44.5651 39.6221 43.5662C40.9751 42.4768 41.8565 41.3337 42.5749 39.9508C43.2663 38.6123 43.8089 37.0578 44.1711 34.7315C44.5281 32.4018 44.6361 31.6583 45.2798 25.6948C45.9235 19.7312 45.9767 18.9818 46.1254 16.6269C46.2677 14.2795 46.0696 12.6423 45.6794 11.1898C45.2857 9.66538 44.5646 8.24504 43.5662 7.02762C42.5908 5.79147 41.3568 4.78364 39.9508 4.0748C38.6098 3.38034 37.0526 2.83744 34.7287 2.47831C32.3963 2.12104 31.6555 2.01331 25.6892 1.3693L25.6975 1.37019L25.6947 1.36989ZM23.2998 5.11487L25.2703 5.32757C31.1323 5.96033 31.8245 6.05449 34.1265 6.41125C36.2567 6.73836 37.3815 7.22348 38.1231 7.60616C39.1038 8.11459 39.785 8.6712 40.4705 9.52257C41.156 10.3739 41.552 11.1552 41.8391 12.2245C42.0578 13.0283 42.2889 14.2304 42.1539 16.3814C42.0112 18.7065 41.9582 19.4032 41.3258 25.2624C40.6933 31.1216 40.5961 31.8163 40.2393 34.1183C39.9122 36.2485 39.4274 37.3706 39.0447 38.1122C38.5898 39.0275 37.935 39.8288 37.1286 40.4568C36.2772 41.1423 35.496 41.5383 34.4266 41.8254C33.6256 42.0444 32.4235 42.2755 30.2695 42.143C27.9447 41.9975 27.2477 41.9473 21.3857 41.3145C15.5238 40.6818 14.8294 40.5818 12.5271 40.2278C10.3972 39.8979 9.27481 39.4159 8.53349 39.0304C7.61776 38.576 6.81553 37.9221 6.18581 37.1168C5.53155 36.3299 5.062 35.4064 4.81173 34.4142C4.59583 33.6108 4.36192 32.4083 4.49694 30.2574C4.64238 27.9326 4.69537 27.2359 5.32843 21.3712C5.96119 15.5092 6.05779 14.82 6.41181 12.5177C6.74167 10.3878 7.22404 9.26268 7.60946 8.52136C8.11789 7.54066 8.67451 6.85946 9.52588 6.17398C10.3772 5.4885 11.1585 5.09252 12.2278 4.80538C13.0343 4.58704 14.2337 4.35558 16.385 4.48785C18.4204 4.61316 19.2083 4.67044 23.3004 5.10938L23.2998 5.11487ZM36.5954 10.237C36.2494 10.1997 35.8994 10.2308 35.5655 10.3287C35.2316 10.4266 34.9202 10.5894 34.6491 10.8076C34.3781 11.0258 34.1527 11.2953 33.9858 11.6007C33.8188 11.906 33.7137 12.2413 33.6764 12.5872C33.639 12.9332 33.6702 13.2832 33.7681 13.6171C33.866 13.951 34.0287 14.2624 34.2469 14.5335C34.4652 14.8045 34.7347 15.0299 35.04 15.1968C35.3454 15.3637 35.6806 15.4689 36.0266 15.5062C36.7253 15.5816 37.4254 15.3764 37.9728 14.9357C38.5202 14.4949 38.8701 13.8547 38.9456 13.156C39.021 12.4573 38.8158 11.7572 38.375 11.2098C37.9343 10.6624 37.2941 10.3124 36.5954 10.237ZM24.5445 12.0513C23.0515 11.8665 21.5367 11.9806 20.0883 12.3869C18.6398 12.7932 17.2867 13.4836 16.1076 14.4178C14.9285 15.3521 13.947 16.5116 13.2204 17.8288C12.4937 19.146 12.0363 20.5946 11.8749 22.0903C11.7134 23.586 11.8511 25.0988 12.28 26.5408C12.7088 27.9827 13.4202 29.3249 14.3728 30.4893C15.3253 31.6537 16.5 32.6169 17.8284 33.3229C19.1568 34.029 20.6123 34.4637 22.1103 34.6018C25.0752 34.8751 28.0287 33.9716 30.3333 32.0863C32.6378 30.201 34.1086 27.4851 34.4281 24.5248C34.7477 21.5645 33.8904 18.5973 32.0412 16.2636C30.1921 13.9299 27.4994 12.417 24.5445 12.0513ZM24.1176 16.0059C26.0588 16.2155 27.8373 17.1875 29.0617 18.7083C30.2862 20.2291 30.8564 22.174 30.6468 24.1152C30.4373 26.0564 29.4652 27.8348 27.9444 29.0593C26.4236 30.2838 24.4787 30.8539 22.5375 30.6444C20.5963 30.4349 18.8179 29.4628 17.5934 27.942C16.369 26.4212 15.7988 24.4763 16.0083 22.5351C16.2179 20.5939 17.19 18.8155 18.7107 17.591C20.2315 16.3666 22.1765 15.7964 24.1176 16.0059Z" fill="white"/>
</svg>
